<?xml version="1.0" encoding="UTF-8" standalone="no"?>
<!DOCTYPE svg PUBLIC "-//W3C//DTD SVG 1.1//EN"
 "http://www.w3.org/Graphics/SVG/1.1/DTD/svg11.dtd">
<!-- Generated by graphviz version 2.41.20171026.1811 (20171026.1811)
 -->
<!-- Title: textMatrix Pages: 1 -->
<svg width="170pt" height="791pt"
 viewBox="0.00 0.00 170.00 791.00" xmlns="http://www.w3.org/2000/svg" xmlns:xlink="http://www.w3.org/1999/xlink">
<g id="graph0" class="graph" transform="scale(1 1) rotate(0) translate(4 787)">
<title>textMatrix</title>
<polygon fill="white" stroke="transparent" points="-4,4 -4,-787 166,-787 166,4 -4,4"/>
<g id="clust1" class="cluster">
<title>cluster_ph5</title>
<polygon fill="none" stroke="black" points="10,-628 10,-775 152,-775 152,-628 10,-628"/>
<text text-anchor="middle" x="81" y="-759.8" font-family="Times,serif" font-size="14.00">Phase 5</text>
</g>
<g id="clust2" class="cluster">
<title>cluster_ph4</title>
<polygon fill="none" stroke="black" points="10,-545 10,-620 152,-620 152,-545 10,-545"/>
<text text-anchor="middle" x="81" y="-604.8" font-family="Times,serif" font-size="14.00">Phase 4</text>
</g>
<g id="clust3" class="cluster">
<title>cluster_ph3</title>
<polygon fill="none" stroke="black" points="56,-318 56,-537 126,-537 126,-318 56,-318"/>
<text text-anchor="middle" x="91" y="-521.8" font-family="Times,serif" font-size="14.00">Phase 3</text>
</g>
<g id="clust4" class="cluster">
<title>cluster_ph2</title>
<polygon fill="none" stroke="black" points="56,-91 56,-310 126,-310 126,-91 56,-91"/>
<text text-anchor="middle" x="91" y="-294.8" font-family="Times,serif" font-size="14.00">Phase 2</text>
</g>
<g id="clust5" class="cluster">
<title>cluster_ph1</title>
<polygon fill="none" stroke="black" points="69,-8 69,-83 139,-83 139,-8 69,-8"/>
<text text-anchor="middle" x="104" y="-67.8" font-family="Times,serif" font-size="14.00">Phase 1</text>
</g>
<!-- 12 -->
<g id="node1" class="node">
<title>12</title>
<polygon fill="none" stroke="black" points="72,-744 18,-744 18,-708 72,-708 72,-744"/>
<text text-anchor="middle" x="45" y="-722.3" font-family="Times,serif" font-size="14.00">12</text>
</g>
<!-- 8 -->
<g id="node2" class="node">
<title>8</title>
<polygon fill="none" stroke="black" points="72,-672 18,-672 18,-636 72,-636 72,-672"/>
<text text-anchor="middle" x="45" y="-650.3" font-family="Times,serif" font-size="14.00">8</text>
</g>
<!-- 12&#45;&#45;8 -->
<g id="edge11" class="edge">
<title>12:s&#45;&#45;8:n</title>
<path fill="none" stroke="black" d="M45,-708C45,-708 45,-672 45,-672"/>
</g>
<!-- 5 -->
<g id="node3" class="node">
<title>5</title>
<polygon fill="none" stroke="black" points="144,-672 90,-672 90,-636 144,-636 144,-672"/>
<text text-anchor="middle" x="117" y="-650.3" font-family="Times,serif" font-size="14.00">5</text>
</g>
<!-- 12&#45;&#45;5 -->
<g id="edge2" class="edge">
<title>12:s&#45;&#45;5:n</title>
<path fill="none" stroke="black" d="M45,-726C45,-726 117,-726 117,-726 117,-726 117,-672 117,-672"/>
</g>
<!-- 2 -->
<g id="node8" class="node">
<title>2</title>
<polygon fill="none" stroke="black" points="118,-362 64,-362 64,-326 118,-326 118,-362"/>
<text text-anchor="middle" x="91" y="-340.3" font-family="Times,serif" font-size="14.00">2</text>
</g>
<!-- 12&#45;&#45;2 -->
<g id="edge12" class="edge">
<title>12:s&#45;&#45;2:n</title>
<path fill="none" stroke="black" d="M45,-726C45,-726 0,-726 0,-726 0,-726 0,-344 0,-344 0,-344 91,-344 91,-344"/>
</g>
<!-- 6 -->
<g id="node4" class="node">
<title>6</title>
<polygon fill="none" stroke="black" points="144,-589 90,-589 90,-553 144,-553 144,-589"/>
<text text-anchor="middle" x="117" y="-567.3" font-family="Times,serif" font-size="14.00">6</text>
</g>
<!-- 5&#45;&#45;6 -->
<g id="edge3" class="edge">
<title>5:s&#45;&#45;6:n</title>
<path fill="none" stroke="black" d="M117,-636C117,-636 117,-589 117,-589"/>
</g>
<!-- 7 -->
<g id="node5" class="node">
<title>7</title>
<polygon fill="none" stroke="black" points="72,-589 18,-589 18,-553 72,-553 72,-589"/>
<text text-anchor="middle" x="45" y="-567.3" font-family="Times,serif" font-size="14.00">7</text>
</g>
<!-- 5&#45;&#45;7 -->
<g id="edge13" class="edge">
<title>5:s&#45;&#45;7:n</title>
<path fill="none" stroke="black" d="M117,-654C117,-654 81,-654 81,-654 81,-654 81,-577 81,-577 81,-577 45,-577 45,-577"/>
</g>
<!-- 1 -->
<g id="node12" class="node">
<title>1</title>
<polygon fill="blue" stroke="black" points="131,-52 77,-52 77,-16 131,-16 131,-52"/>
<text text-anchor="middle" x="104" y="-30.3" font-family="Times,serif" font-size="14.00">1</text>
</g>
<!-- 5&#45;&#45;1 -->
<g id="edge15" class="edge">
<title>5:s&#45;&#45;1:n</title>
<path fill="none" stroke="black" d="M117,-654C117,-654 162,-654 162,-654 162,-654 162,-34 162,-34 162,-34 104,-34 104,-34"/>
</g>
<!-- 4 -->
<g id="node6" class="node">
<title>4</title>
<polygon fill="none" stroke="black" points="118,-506 64,-506 64,-470 118,-470 118,-506"/>
<text text-anchor="middle" x="91" y="-484.3" font-family="Times,serif" font-size="14.00">4</text>
</g>
<!-- 6&#45;&#45;4 -->
<g id="edge4" class="edge">
<title>6:s&#45;&#45;4:n</title>
<path fill="none" stroke="black" d="M104,-553C104,-553 104,-506 104,-506"/>
</g>
<!-- 7&#45;&#45;6 -->
<g id="edge1" class="edge">
<title>7:e&#45;&#45;6:w</title>
<path fill="none" stroke="black" d="M72,-565C72,-563 90,-563 90,-565"/>
<path fill="none" stroke="transparent" d="M72,-565C72,-565 90,-565 90,-565"/>
<path fill="none" stroke="black" d="M72,-565C72,-567 90,-567 90,-565"/>
</g>
<!-- 7&#45;&#45;1 -->
<g id="edge14" class="edge">
<title>7:s&#45;&#45;1:n</title>
<path fill="none" stroke="black" d="M41,-553C41,-553 41,-34 41,-34 41,-34 104,-34 104,-34"/>
</g>
<!-- 3 -->
<g id="node7" class="node">
<title>3</title>
<polygon fill="none" stroke="black" points="118,-434 64,-434 64,-398 118,-398 118,-434"/>
<text text-anchor="middle" x="91" y="-412.3" font-family="Times,serif" font-size="14.00">3</text>
</g>
<!-- 4&#45;&#45;3 -->
<g id="edge5" class="edge">
<title>4:s&#45;&#45;3:n</title>
<path fill="none" stroke="black" d="M91,-470C91,-470 91,-434 91,-434"/>
</g>
<!-- 3&#45;&#45;2 -->
<g id="edge6" class="edge">
<title>3:s&#45;&#45;2:n</title>
<path fill="none" stroke="black" d="M91,-398C91,-398 91,-362 91,-362"/>
</g>
<!-- 3&#45;&#45;1 -->
<g id="edge16" class="edge">
<title>3:s&#45;&#45;1:n</title>
<path fill="none" stroke="black" d="M91,-416C91,-416 124.5,-416 124.5,-416 124.5,-416 124.5,-52 124.5,-52"/>
</g>
<!-- 11 -->
<g id="node9" class="node">
<title>11</title>
<polygon fill="none" stroke="black" points="118,-279 64,-279 64,-243 118,-243 118,-279"/>
<text text-anchor="middle" x="91" y="-257.3" font-family="Times,serif" font-size="14.00">11</text>
</g>
<!-- 2&#45;&#45;11 -->
<g id="edge7" class="edge">
<title>2:s&#45;&#45;11:n</title>
<path fill="none" stroke="black" d="M91,-326C91,-326 91,-279 91,-279"/>
</g>
<!-- 10 -->
<g id="node10" class="node">
<title>10</title>
<polygon fill="none" stroke="black" points="118,-207 64,-207 64,-171 118,-171 118,-207"/>
<text text-anchor="middle" x="91" y="-185.3" font-family="Times,serif" font-size="14.00">10</text>
</g>
<!-- 11&#45;&#45;10 -->
<g id="edge8" class="edge">
<title>11:s&#45;&#45;10:n</title>
<path fill="none" stroke="black" d="M91,-243C91,-243 91,-207 91,-207"/>
</g>
<!-- 9 -->
<g id="node11" class="node">
<title>9</title>
<polygon fill="none" stroke="black" points="118,-135 64,-135 64,-99 118,-99 118,-135"/>
<text text-anchor="middle" x="91" y="-113.3" font-family="Times,serif" font-size="14.00">9</text>
</g>
<!-- 10&#45;&#45;9 -->
<g id="edge9" class="edge">
<title>10:s&#45;&#45;9:n</title>
<path fill="none" stroke="black" d="M91,-171C91,-171 91,-135 91,-135"/>
</g>
<!-- 9&#45;&#45;1 -->
<g id="edge10" class="edge">
<title>9:s&#45;&#45;1:n</title>
<path fill="none" stroke="black" d="M97.5,-99C97.5,-99 97.5,-52 97.5,-52"/>
</g>
</g>
</svg>
